<?xml version="1.0" encoding="utf-8"?>
<!-- Generator: Adobe Illustrator 18.1.0, SVG Export Plug-In . SVG Version: 6.00 Build 0)  -->
<svg version="1.1" id="图层_1" xmlns="http://www.w3.org/2000/svg" xmlns:xlink="http://www.w3.org/1999/xlink" x="0px" y="0px"
	 viewBox="0 0 44 44" enable-background="new 0 0 44 44" xml:space="preserve">
<g>
	<path fill="#FFBC00" d="M22,5c9.4,0,17,7.6,17,17s-7.6,17-17,17S5,31.4,5,22S12.6,5,22,5 M22,0C9.8,0,0,9.8,0,22s9.8,22,22,22
		s22-9.8,22-22S34.2,0,22,0L22,0z"/>
	<path fill="#FFBC00" d="M24.3,12.1l-0.3,13c0,1.1-0.9,2-2,2h0c-1.1,0-2-0.9-2-2l-0.3-13c0-1.3,1-2.4,2.3-2.4h0
		C23.3,9.7,24.4,10.8,24.3,12.1z M22,30c0.3,0,0.6,0.1,0.8,0.2s0.5,0.3,0.7,0.5c0.2,0.2,0.4,0.4,0.5,0.7c0.1,0.3,0.2,0.5,0.2,0.8
		c0,0.6-0.2,1.1-0.6,1.6s-0.9,0.6-1.6,0.6c-0.3,0-0.6-0.1-0.8-0.2c-0.3-0.1-0.5-0.3-0.7-0.5c-0.2-0.2-0.4-0.4-0.5-0.7
		c-0.1-0.3-0.2-0.5-0.2-0.8c0-0.3,0.1-0.6,0.2-0.8c0.1-0.3,0.3-0.5,0.5-0.7c0.2-0.2,0.4-0.4,0.7-0.5S21.7,30,22,30z"/>
</g>
</svg>
